<svg version="1" xmlns="http://www.w3.org/2000/svg" width="933.333" height="933.333" viewBox="0 0 700.000000 700.000000"><path d="M116.1 133.2c-5.6 1.1-11.9 3.4-18 6.4-12.4 6.1-24.5 17.9-30.8 29.9-23.7 45.4 3.5 99.2 54.2 106.9 1.7.2 7.3.5 12.6.5l9.6.1-3.4 11.7c-6.6 22.9-8.8 38.3-8.7 61.8 0 18.1 1.5 31.9 4.9 46.5.4 1.4.9 3.8 1.1 5.5 1.1 6.3 9.9 30.4 14.8 41 8 16.8 20.5 36.1 32.1 49.5 12.9 14.9 35.8 34.1 52.8 44.4 7.9 4.8 22.9 12.4 28.3 14.4 1.6.6 6.1 2.2 9.9 3.7 7.7 2.8 22 7 27.4 8 1.9.3 3.7.7 4 .9.3.2 3.1.7 6.1 1.1 3 .4 5.7.8 6 1 2.7 1.6 38.9 2.5 52 1.2 41.6-4 82.7-20.8 115.8-47.3 7.6-6 25.4-23.2 29.2-28 13.5-17.2 13.6-17.3 21.5-29.8 5-8 13.5-25.9 17.9-37.9 3.6-9.7 9-29.7 10.1-37.3.3-2.1.7-4.8 1-5.9 2.4-11.5 2.5-48.1.1-61-.2-1.1-.7-4.3-1-7-1-6.6-5.2-24-7.6-31l-1.9-5.5h9.2c14.2-.1 22.4-1.7 33.4-6.6 37.1-16.3 53.5-62.6 35.1-98.8-9.6-19-27-32.9-47.3-37.9-7.7-2-15.7-2.8-17-1.9-.5.4-1.1 2.9-1.3 5.7-.1 2.7-.4 5.7-.6 6.5-5.5 26.9-23.5 47.7-48.8 56.1-25.5 8.6-53.9 2.3-72.7-16-3.7-3.6-8-8.3-9.5-10.4-5.8-8-11.4-22.1-13-32.5-.6-4.4-1.3-5-1.4-1.2-.1 4.6-3.9 17.5-6.8 23.3-9.5 18.6-25.3 31.9-45.4 37.9-8.9 2.7-26.1 3.3-35.5 1.2-23.9-5.5-43.6-22.5-52.3-45.1-2.7-7.1-4.9-15.7-4.4-17.6.1-.4-.3-.7-.8-.7-.6 0-1 1.2-1 2.8 0 6.9-6.7 23.8-12.8 32.2-7.4 10.3-20.7 20.3-33.2 25.3-17.9 7-40.8 5.8-58.5-3-22.2-11.1-37.9-34.2-39.9-58.8-.3-2.8-.5-5.3-.5-5.8-.1-1-4.8-.6-15 1.5z"/></svg>