<?xml version="1.0" standalone="yes"?>

<svg version="1.1" viewBox="0.0 0.0 480.0 480.0" fill="none" stroke="none" stroke-linecap="square" stroke-miterlimit="10" xmlns="http://www.w3.org/2000/svg" xmlns:xlink="http://www.w3.org/1999/xlink"><clipPath id="p.0"><path d="m0 0l480.0 0l0 480.0l-480.0 0l0 -480.0z" clip-rule="nonzero"></path></clipPath><g clip-path="url(#p.0)"><path fill="#000000" fill-opacity="0.0" d="m0 0l480.0 0l0 480.0l-480.0 0z" fill-rule="nonzero"></path><path fill="#ffffff" d="m0 0l480.0 0l0 480.0l-480.0 0z" fill-rule="nonzero"></path><path fill="#607d8b" d="m83.88935 239.99959l0 0c0 -86.2173 69.89294 -156.11023 156.11023 -156.11023l0 0c41.403 0 81.110275 16.447289 110.38661 45.72364c29.276337 29.276337 45.723633 68.9836 45.723633 110.3866l0 0c0 86.2173 -69.892944 156.11024 -156.11024 156.11024l0 0c-86.2173 0 -156.11023 -69.892944 -156.11023 -156.11024z" fill-rule="nonzero"></path><path fill="#ffffff" d="m273.66437 240.00246l0 0c0 -9.406952 7.6258545 -17.032791 17.032806 -17.032791l0 0c4.517395 0 8.849731 1.7945099 12.044006 4.988785c3.194275 3.194275 4.9888 7.5266266 4.9888 12.044006l0 0c0 9.406952 -7.6258545 17.032791 -17.032806 17.032791l0 0c-9.406952 0 -17.032806 -7.625839 -17.032806 -17.032791z" fill-rule="nonzero"></path><path fill="#ffffff" d="m172.27786 240.00246l0 0c0 -9.406952 7.6258545 -17.032791 17.032806 -17.032791l0 0c4.5173798 0 8.849731 1.7945099 12.044006 4.988785c3.194275 3.194275 4.988785 7.5266266 4.988785 12.044006l0 0c0 9.406952 -7.625839 17.032791 -17.032791 17.032791l0 0c-9.406952 0 -17.032806 -7.625839 -17.032806 -17.032791z" fill-rule="nonzero"></path><path fill="#607d8b" d="m25.247276 143.36967l0 0c0 -32.850075 26.630245 -59.480324 59.480316 -59.480324l310.55118 0c15.7751465 0 30.904205 6.2666626 42.05893 17.421387c11.154724 11.154724 17.421387 26.283775 17.421387 42.058937l0 0l0 0c0 32.850067 -26.630249 59.480316 -59.480316 59.480316l-310.55118 0c-32.85007 0 -59.480316 -26.630249 -59.480316 -59.480316z" fill-rule="nonzero"></path><path fill="#ffffff" d="m180.52136 83.89082l0 0c0 -32.850273 26.630417 -59.480682 59.480682 -59.480682l0 0c15.775269 0 30.904419 6.266697 42.059204 17.42149c11.154785 11.154793 17.421478 26.28394 17.421478 42.059193l0 0c0 32.850273 -26.630402 59.480682 -59.480682 59.480682l0 0c-32.850266 0 -59.480682 -26.63041 -59.480682 -59.480682z" fill-rule="nonzero"></path><path fill="#ffffff" d="m61.53362 83.89082l0 0c0 -32.850273 26.630405 -59.480682 59.480686 -59.480682l0 0c15.775261 0 30.904396 6.266697 42.059196 17.42149c11.154785 11.154793 17.421478 26.28394 17.421478 42.059193l0 0c0 32.850273 -26.630402 59.480682 -59.480675 59.480682l0 0c-32.85028 0 -59.480686 -26.63041 -59.480686 -59.480682z" fill-rule="nonzero"></path><path fill="#ffffff" d="m299.50912 83.89082l0 0c0 -32.850273 26.630402 -59.480682 59.480682 -59.480682l0 0c15.775238 0 30.904388 6.266697 42.059174 17.42149c11.154816 11.154793 17.421509 26.28394 17.421509 42.059193l0 0c0 32.850273 -26.630432 59.480682 -59.480682 59.480682l0 0c-32.85028 0 -59.480682 -26.63041 -59.480682 -59.480682z" fill-rule="nonzero"></path></g></svg>

