<svg xmlns="http://www.w3.org/2000/svg" viewBox="0 0 40 40"><path d=" M 0 20 C 0 8.962 8.962 0 20 0 C 31.038 0 40 8.962 40 20 C 40 31.038 31.038 40 20 40 C 8.962 40 0 31.038 0 20 Z  M 25 22 L 21 22 L 21 26 L 19 26 L 19 22 L 15 22 L 15 20 L 19 20 L 19 16 L 21 16 L 21 20 L 25 20 L 25 22 L 25 22 Z  M 28 13 L 25 13 L 23 11 L 17 11 L 15 13 L 12 13 C 10.898 13 10 13.898 10 15 L 10 27 C 10 28.102 10.898 29 12 29 L 28 29 C 29.102 29 30 28.102 30 27 L 30 15 C 30 13.898 29.102 13 28 13 L 28 13 Z " fill="#000"/></svg>
