<svg
  width="24"
  height="24"
  viewBox="0 0 24 24"
  xmlns="http://www.w3.org/2000/svg"
  fill="white"
  fill-opacity="0.4"
>
  <path
    fill-rule="evenodd"
    clip-rule="evenodd"
    d="M12.0405 3.00014C10.9896 2.99305 9.95522 3.26212 9.04098 3.78041C8.12674 4.2987 7.36467 5.04803 6.83104 5.9534C6.27018 6.90499 6.58691 8.13106 7.5385 8.69193C8.49008 9.25279 9.71616 8.93605 10.277 7.98447C10.4549 7.68268 10.7089 7.4329 11.0137 7.26014C11.3184 7.08737 11.6632 6.99768 12.0135 7.00005C12.3638 7.00241 12.7073 7.09674 13.0097 7.2736C13.3121 7.45045 13.5627 7.70363 13.7365 8.0078C13.9103 8.31196 14.0012 8.65643 14 9.00674C13.9988 9.35705 13.9056 9.70091 13.7298 10.0039C13.554 10.3069 13.3016 10.5584 12.9981 10.7332C12.6945 10.908 12.3503 11 12 11C12 11 12 11 12 11C11.8619 11 11.7271 11.014 11.5969 11.0406C11.0075 11.1613 10.5125 11.5412 10.2364 12.056C10.0855 12.3372 10 12.6586 10 13V17C10 18.1046 10.8954 19 12 19C13.1046 19 14 18.1046 14 17V14.6569C14.3433 14.5355 14.6762 14.3826 14.9942 14.1995C15.9049 13.6751 16.6619 12.9206 17.1894 12.0117C17.7169 11.1027 17.9964 10.0712 18 9.02023C18.0035 7.9693 17.731 6.93588 17.2096 6.02339C16.6882 5.1109 15.9363 4.35136 15.0292 3.82079C14.122 3.29021 13.0914 3.00722 12.0405 3.00014Z"
  />
  <circle cx="12" cy="19" r="3" />
</svg>
