<svg
  width="24"
  height="24"
  viewBox="0 0 24 24"
  xmlns="http://www.w3.org/2000/svg"
  fill="white"
  fill-opacity="0.4"
>
  <path
    d="M3 5C3 3.89543 3.89543 3 5 3H19C20.1046 3 21 3.89543 21 5V15H15V21H5C3.89543 21 3 20.1046 3 19V5Z"
  />
  <path d="M3 5C3 3.89543 3.89543 3 5 3H9V9H3V5Z" />
  <path d="M3 15H9V21H5C3.89543 21 3 20.1046 3 19V15Z" />
  <rect x="9" y="9" width="6" height="6" />
  <path d="M16 16H22V20C22 21.1046 21.1046 22 20 22H16V16Z" />
  <path d="M15 3H19C20.1046 3 21 3.89543 21 5V9H15V3Z" />
  <path d="M16 16H22V20C22 21.1046 21.1046 22 20 22H16V16Z" />
</svg>
