<?xml version="1.0" encoding="UTF-8" standalone="no"?><!-- Generator: Gravit.io --><svg xmlns="http://www.w3.org/2000/svg" xmlns:xlink="http://www.w3.org/1999/xlink" style="isolation:isolate" viewBox="0 0 24 216" width="24pt" height="216pt"><defs><clipPath id="_clipPath_VE4ohOIyO3HGc2NtO1tnDj3rxdfD1QSi"><rect width="24" height="216"/></clipPath></defs><g clip-path="url(#_clipPath_VE4ohOIyO3HGc2NtO1tnDj3rxdfD1QSi)"><path d=" M 12 40.243 L 17.162 44 L 15.186 37.934 L 20.348 34.261 L 14.017 34.261 L 12 28 L 9.983 34.261 L 3.652 34.261 L 8.814 37.934 L 6.838 44 L 12 40.243 Z " fill="none" vector-effect="non-scaling-stroke" stroke-width="1" stroke="rgb(255,255,255)" stroke-linejoin="round" stroke-linecap="round" stroke-miterlimit="4"/><path d=" M 8 8 C 5.792 8 4 9.792 4 12 L 4 12 C 4 14.208 5.792 16 8 16 C 9.479 16 10.772 15.195 11.464 14 L 12.536 14 L 12.536 14 C 13.228 15.195 14.521 16 16 16 C 18.208 16 20 14.208 20 12 C 20 9.792 18.208 8 16 8 L 16 8 L 8 8 L 8 8 Z " fill="none" vector-effect="non-scaling-stroke" stroke-width="1" stroke="rgb(255,255,255)" stroke-linejoin="round" stroke-linecap="round" stroke-miterlimit="3"/><line x1="8" y1="10" x2="8" y2="14" vector-effect="non-scaling-stroke" stroke-width="1" stroke="rgb(255,255,255)" stroke-linejoin="round" stroke-linecap="round" stroke-miterlimit="3"/><line x1="10" y1="12" x2="6" y2="12" vector-effect="non-scaling-stroke" stroke-width="1" stroke="rgb(255,255,255)" stroke-linejoin="round" stroke-linecap="round" stroke-miterlimit="3"/><circle vector-effect="non-scaling-stroke" cx="16" cy="10" r="0.75" fill="rgb(255,255,255)"/><circle vector-effect="non-scaling-stroke" cx="14" cy="12" r="0.75" fill="rgb(255,255,255)"/><circle vector-effect="non-scaling-stroke" cx="16" cy="14" r="0.75" fill="rgb(255,255,255)"/><circle vector-effect="non-scaling-stroke" cx="17.999999999999996" cy="12" r="0.75" fill="rgb(255,255,255)"/><circle vector-effect="non-scaling-stroke" cx="12" cy="84" r="0.75" fill="rgb(255,255,255)"/><circle vector-effect="non-scaling-stroke" cx="12" cy="188" r="0.75" fill="rgb(255,255,255)"/><path d=" M 18.938 55.297 C 19.779 57.059 19.47 59.235 18.012 60.694 C 16.553 62.153 14.377 62.461 12.615 61.62 L 6.836 67.4 L 4.6 65.164 L 10.38 59.385 C 9.539 57.623 9.847 55.447 11.306 53.988 C 12.765 52.53 14.941 52.221 16.703 53.062 L 13.541 56.223 L 15.777 58.459 L 18.938 55.297 Z " fill="none" vector-effect="non-scaling-stroke" stroke-width="1" stroke="rgb(255,255,255)" stroke-linejoin="round" stroke-linecap="round" stroke-miterlimit="3"/><path d=" M 4 84 Q 12.031 75.969 20 84 Q 12.031 92.031 4 84 Z " fill="none" vector-effect="non-scaling-stroke" stroke-width="1" stroke="rgb(255,255,255)" stroke-linejoin="round" stroke-linecap="round" stroke-miterlimit="3"/><rect x="5" y="101" width="2" height="2" transform="matrix(1,0,0,1,0,0)" fill="none" vector-effect="non-scaling-stroke" stroke-width="1" stroke="rgb(255,255,255)" stroke-linejoin="round" stroke-linecap="round" stroke-miterlimit="2"/><rect x="5" y="113" width="2" height="2" transform="matrix(1,0,0,1,0,0)" fill="none" vector-effect="non-scaling-stroke" stroke-width="1" stroke="rgb(255,255,255)" stroke-linejoin="round" stroke-linecap="round" stroke-miterlimit="2"/><rect x="10" y="113" width="10" height="2" transform="matrix(1,0,0,1,0,0)" fill="none" vector-effect="non-scaling-stroke" stroke-width="1" stroke="rgb(255,255,255)" stroke-linejoin="round" stroke-linecap="round" stroke-miterlimit="2"/><path d=" M 4 124 L 4 136 L 12 140 L 20 136 L 20 124 L 12 128 L 4 124 Z " fill="none" vector-effect="non-scaling-stroke" stroke-width="1" stroke="rgb(255,255,255)" stroke-linejoin="round" stroke-linecap="round" stroke-miterlimit="3"/><path d=" M 12 162 L 6 162 L 6 150 L 18 150 L 18 156" fill="none" vector-effect="non-scaling-stroke" stroke-width="1" stroke="rgb(255,255,255)" stroke-linejoin="round" stroke-linecap="round" stroke-miterlimit="3"/><path d=" M 6 178 C 6 174.689 8.689 172 12 172 C 15.311 172 18 174.689 18 178 C 18 181.311 15.311 184 12 184" fill="none" vector-effect="non-scaling-stroke" stroke-width="1" stroke="rgb(255,255,255)" stroke-linejoin="round" stroke-linecap="round" stroke-miterlimit="3"/><line x1="12" y1="186" x2="12" y2="184" vector-effect="non-scaling-stroke" stroke-width="1" stroke="rgb(255,255,255)" stroke-linejoin="round" stroke-linecap="round" stroke-miterlimit="3"/><line x1="14" y1="130" x2="18" y2="128" vector-effect="non-scaling-stroke" stroke-width="1" stroke="rgb(255,255,255)" stroke-linejoin="round" stroke-linecap="round" stroke-miterlimit="3"/><line x1="14" y1="132" x2="16" y2="131" vector-effect="non-scaling-stroke" stroke-width="1" stroke="rgb(255,255,255)" stroke-linejoin="round" stroke-linecap="round" stroke-miterlimit="3"/><path d=" M 8 126 L 8 124 L 12 128 L 12 140" fill="none" vector-effect="non-scaling-stroke" stroke-width="1" stroke="rgb(255,255,255)" stroke-linejoin="round" stroke-linecap="round" stroke-miterlimit="3"/><path d=" M 12 124 L 12 128 L 16 126 L 16 124 L 12 128" fill="none" vector-effect="non-scaling-stroke" stroke-width="1" stroke="rgb(255,255,255)" stroke-linejoin="round" stroke-linecap="round" stroke-miterlimit="3"/><rect x="5" y="107" width="2" height="2" transform="matrix(1,0,0,1,0,0)" fill="none" vector-effect="non-scaling-stroke" stroke-width="1" stroke="rgb(255,255,255)" stroke-linejoin="round" stroke-linecap="round" stroke-miterlimit="2"/><rect x="10" y="107" width="10" height="2" transform="matrix(1,0,0,1,0,0)" fill="none" vector-effect="non-scaling-stroke" stroke-width="1" stroke="rgb(255,255,255)" stroke-linejoin="round" stroke-linecap="round" stroke-miterlimit="2"/><rect x="10" y="101" width="10" height="2" transform="matrix(1,0,0,1,0,0)" fill="none" vector-effect="non-scaling-stroke" stroke-width="1" stroke="rgb(255,255,255)" stroke-linejoin="round" stroke-linecap="round" stroke-miterlimit="2"/><circle vector-effect="non-scaling-stroke" cx="12" cy="84.00000000000006" r="3" fill="none" stroke-width="1" stroke="rgb(255,255,255)" stroke-linejoin="round" stroke-linecap="butt" stroke-miterlimit="3"/></g></svg>