<?xml version="1.0" standalone="no"?>
<!-- Generator: Gravit.io -->
<svg xmlns="http://www.w3.org/2000/svg" xmlns:xlink="http://www.w3.org/1999/xlink" viewBox="0 0 16 16" width="16" height="16">
  <path d="M0 0L16 0L16 16L0 16L0 0ZM6.71 12.71L14.71 4.71C14.89 4.52 15 4.27 15 4C15 3.73 14.89 3.48 14.71 3.29C14.52 3.11 14.27 3 14 3C13.73 3 13.48 3.11 13.29 3.29L6 10.58L2.71 7.29C2.52 7.11 2.27 7 2 7C1.73 7 1.48 7.11 1.29 7.29C1.11 7.48 1 7.73 1 8C1 8.27 1.11 8.52 1.29 8.71L5.29 12.71C5.48 12.89 5.73 13 6 13L6 13C6.27 13 6.52 12.89 6.71 12.71L6.71 12.71Z" fill="#E3006E"/>
</svg>
